<svg width="24" height="35" viewBox="0 0 24 35" fill="none" xmlns="http://www.w3.org/2000/svg">
<path d="M23.3333 11.6667C23.3333 18.1098 11.6667 35 11.6667 35C11.6667 35 0 18.1098 0 11.6667C0 5.22295 5.22295 0 11.6667 0C18.1098 0 23.3333 5.22295 23.3333 11.6667Z" fill="#1D1D1B"/>
<path d="M4.068 7.35V4.344H6.714C6.966 4.344 7.206 4.368 7.434 4.416C7.674 4.452 7.884 4.524 8.064 4.632C8.244 4.74 8.388 4.89 8.496 5.082C8.604 5.274 8.658 5.52 8.658 5.82C8.658 6.36 8.496 6.75 8.172 6.99C7.848 7.23 7.434 7.35 6.93 7.35H4.068ZM1.242 2.148V15H7.47C8.046 15 8.604 14.928 9.144 14.784C9.696 14.64 10.182 14.418 10.602 14.118C11.034 13.818 11.376 13.434 11.628 12.966C11.88 12.486 12.006 11.922 12.006 11.274C12.006 10.47 11.808 9.786 11.412 9.222C11.028 8.646 10.44 8.244 9.648 8.016C10.224 7.74 10.656 7.386 10.944 6.954C11.244 6.522 11.394 5.982 11.394 5.334C11.394 4.734 11.292 4.23 11.088 3.822C10.896 3.414 10.62 3.09 10.26 2.85C9.9 2.598 9.468 2.418 8.964 2.31C8.46 2.202 7.902 2.148 7.29 2.148H1.242ZM4.068 12.804V9.276H7.146C7.758 9.276 8.25 9.42 8.622 9.708C8.994 9.984 9.18 10.452 9.18 11.112C9.18 11.448 9.12 11.724 9 11.94C8.892 12.156 8.742 12.33 8.55 12.462C8.358 12.582 8.136 12.672 7.884 12.732C7.632 12.78 7.368 12.804 7.092 12.804H4.068Z" transform="translate(5.57812 4.24371)" fill="white"/>
</svg>
