<svg width="50" height="30" viewBox="0 0 50 30" fill="none" xmlns="http://www.w3.org/2000/svg">
<path d="M3.74218 6.95773C5.80894 6.95773 7.48437 5.40018 7.48437 3.47886C7.48437 1.55754 5.80894 0 3.74218 0C1.67543 0 0 1.55754 0 3.47886C0 5.40018 1.67543 6.95773 3.74218 6.95773Z" transform="translate(0 13.9216)" fill="black"/>
<path d="M3.74152 6.95648C5.8079 6.95648 7.48303 5.39922 7.48303 3.47824C7.48303 1.55726 5.8079 0 3.74152 0C1.67513 0 0 1.55726 0 3.47824C0 5.39922 1.67513 6.95648 3.74152 6.95648Z" transform="translate(20.3599)" fill="black"/>
<path d="M3.74152 6.95649C5.8079 6.95649 7.48303 5.39922 7.48303 3.47824C7.48303 1.55726 5.8079 0 3.74152 0C1.67513 0 0 1.55726 0 3.47824C0 5.39922 1.67513 6.95649 3.74152 6.95649Z" transform="translate(24.1025 23.0435)" fill="black"/>
<path d="M3.74218 6.95772C5.80893 6.95772 7.48437 5.40019 7.48437 3.47886C7.48437 1.55754 5.80893 0 3.74218 0C1.67543 0 2.19973e-06 1.55754 2.19973e-06 3.47886C2.19973e-06 5.40019 1.67543 6.95772 3.74218 6.95772Z" transform="translate(42.5156 11.0719)" fill="black"/>
<path fill-rule="evenodd" clip-rule="evenodd" d="M2.03678e-08 2.30683L1.51236 3.86106C1.51236 3.86106 1.66253 3.72084 1.88878 3.51175C1.99957 3.40565 2.1484 3.30017 2.2979 3.17732C2.45274 3.0613 2.60291 2.9186 2.78178 2.81002C2.9553 2.69523 3.12883 2.58107 3.29168 2.47311C3.45052 2.36019 3.62138 2.28946 3.75687 2.2119C3.89636 2.13807 4.01115 2.07603 4.09191 2.03321C4.17267 1.98916 4.22072 1.96869 4.22072 1.96869L3.3384 -1.60944e-07C3.3384 0.000620289 3.27833 0.0248183 3.17955 0.0787975C3.08078 0.130295 2.93862 0.204749 2.76776 0.294714C2.60091 0.389022 2.39001 0.477126 2.19445 0.613625C1.99356 0.74454 1.77999 0.884141 1.56642 1.02374C1.34751 1.15652 1.1613 1.32962 0.970419 1.47171C0.785545 1.62124 0.602673 1.75091 0.464519 1.87996C0.18554 2.13621 2.03678e-08 2.30683 2.03678e-08 2.30683Z" transform="translate(9.979 1.65848)" fill="black"/>
<path fill-rule="evenodd" clip-rule="evenodd" d="M2.03678e-08 3.23689L2.01759 4.15267C2.01759 4.15267 2.12037 3.95847 2.28122 3.67058C2.36064 3.52664 2.45474 3.35788 2.55486 3.17857C2.66164 3.00298 2.7751 2.81498 2.88856 2.62699C3.11014 2.24851 3.3671 1.89547 3.54396 1.61937C3.73551 1.3563 3.86432 1.18134 3.86432 1.18134L2.01358 -4.16562e-07C2.01358 -4.16562e-07 1.87009 0.194201 1.65785 0.486433C1.46364 0.787351 1.18065 1.17823 0.939717 1.58835C0.816913 1.79248 0.693442 1.99599 0.578647 2.18709C0.470527 2.38129 0.369079 2.56184 0.282983 2.71695C0.109456 3.0278 2.03678e-08 3.23689 2.03678e-08 3.23689Z" transform="translate(5.89062 6.33167)" fill="black"/>
<path fill-rule="evenodd" clip-rule="evenodd" d="M2.09634 2.43589C2.10035 2.42472 2.10435 2.41417 2.10836 2.403C2.40536 1.56912 2.74574 0.752607 2.74574 0.752607L0.650727 1.51477e-07C0.652062 1.51477e-07 0.307677 0.824577 -5.80483e-07 1.68204C0.790216 1.72857 1.51503 2.00157 2.09634 2.43589Z" transform="translate(3.98486 12.2508)" fill="black"/>
<path fill-rule="evenodd" clip-rule="evenodd" d="M1.89145 -3.78693e-07L6.5177e-07 1.12487C6.5177e-07 1.12487 0.451171 1.75401 0.664743 2.43526C0.783542 2.77279 0.844945 3.12273 0.870975 3.38828C0.88499 3.52105 0.892997 3.63273 0.892997 3.71153C0.894332 3.79033 0.895668 3.83562 0.895668 3.83562L3.14151 3.82011C3.14151 3.82011 3.14018 3.75682 3.13617 3.64701C3.13751 3.53594 3.1255 3.37773 3.10481 3.18849C3.0681 2.81002 2.97866 2.30311 2.81048 1.81854C2.64629 1.33397 2.43005 0.866147 2.23049 0.53917C2.13906 0.371028 2.05163 0.237012 1.98822 0.145186C1.92682 0.0527386 1.89145 -3.78693e-07 1.89145 -3.78693e-07Z" transform="translate(27.353 6.86591)" fill="black"/>
<path fill-rule="evenodd" clip-rule="evenodd" d="M6.11035e-07 0.0456101L0.286988 2.17127C0.286988 2.17127 0.500558 2.16258 0.818914 2.1508C0.979094 2.15142 1.16464 2.12226 1.36352 2.14521C1.56175 2.1601 1.77398 2.17748 1.98689 2.19361C2.09234 2.20478 2.19913 2.2054 2.30258 2.22463C2.40402 2.24449 2.50614 2.26372 2.60358 2.28295C2.7978 2.32142 2.98 2.35617 3.13684 2.38657C3.29435 2.41077 3.41982 2.45234 3.50859 2.48026C3.59736 2.50693 3.64808 2.52183 3.64808 2.52183L4.12528 0.45945C4.12528 0.45945 4.06388 0.440837 3.95442 0.408574C3.8463 0.374449 3.69079 0.325433 3.49791 0.295651C3.30636 0.259045 3.08078 0.216855 2.84118 0.171562C2.72104 0.149226 2.59757 0.126269 2.4721 0.102692C2.34596 0.0797355 2.21381 0.0797355 2.085 0.0660856C1.82404 0.0468516 1.56508 0.0269975 1.32081 0.00962488C1.19801 -0.00402501 1.07988 -0.000923928 0.96775 0.00528057C0.855624 0.00962372 0.750171 0.0145884 0.652061 0.0183111C0.260957 0.0344428 6.11035e-07 0.0456101 6.11035e-07 0.0456101Z" transform="translate(15.9331 0.740509)" fill="black"/>
<path fill-rule="evenodd" clip-rule="evenodd" d="M3.18508 0.895929L1.15814 -1.07927e-06C1.15814 -1.07927e-06 1.04468 0.217779 0.884504 0.556544C0.724325 0.89531 0.519431 1.36375 0.353912 1.87066C0.185724 2.37508 0.066923 2.92542 0.0282131 3.3616C-0.0158362 3.79591 0.00485373 4.10304 0.00485373 4.10304L2.24803 4.02486C2.24803 4.02486 2.23468 3.84058 2.26338 3.55332C2.28941 3.26667 2.37017 2.87454 2.50165 2.47932C2.62912 2.08347 2.80131 1.687 2.94347 1.39043C3.08296 1.09385 3.18508 0.895929 3.18508 0.895929Z" transform="translate(23.606 18.8152)" fill="black"/>
<path fill-rule="evenodd" clip-rule="evenodd" d="M3.6681 0.684357L1.54573 9.46731e-08C1.54573 9.46731e-08 1.26007 0.766256 0.854955 1.5412C0.462516 2.31366 5.09196e-07 3.10349 5.09196e-07 3.10349L1.98021 4.08628C1.98021 4.08628 2.09634 3.88278 2.26987 3.57876C2.44206 3.27287 2.67032 2.85965 2.88523 2.43527C3.32705 1.59518 3.6681 0.684357 3.6681 0.684357Z" transform="translate(26.2183 13.1169)" fill="black"/>
<path fill-rule="evenodd" clip-rule="evenodd" d="M1.19534 2.08281e-07C1.11191 0.153251 1.02181 0.313328 0.931706 0.472784C0.485875 1.26324 5.70299e-07 2.03073 5.70299e-07 2.03135L1.9355 3.08984C1.9355 3.08984 2.44941 2.27829 2.91726 1.44689C2.98267 1.33273 3.04741 1.21856 3.11014 1.10564C2.35263 0.925712 1.68922 0.533587 1.19534 2.08281e-07Z" transform="translate(42.2222 16.8136)" fill="black"/>
<path fill-rule="evenodd" clip-rule="evenodd" d="M8.55449e-07 2.69523L1.59178 4.16818C1.59178 4.16818 1.77532 3.99384 2.05163 3.73201C2.30858 3.45963 2.67099 3.10597 2.99135 2.73122C3.65876 1.99412 4.24541 1.21484 4.24541 1.21484L2.41937 3.21889e-07C2.41937 3.21889e-07 1.87343 0.726548 1.26341 1.39912C0.969083 1.74471 0.642718 2.05865 0.411125 2.30683C0.164183 2.5395 8.55449e-07 2.69523 8.55449e-07 2.69523Z" transform="translate(38.1523 21.2082)" fill="black"/>
<path fill-rule="evenodd" clip-rule="evenodd" d="M-5.70299e-07 1.19375L0.290992 3.26419C0.290992 3.26419 0.363739 3.25488 0.491882 3.23937C0.619358 3.21951 0.806235 3.20835 1.01447 3.15127C1.22537 3.10101 1.47365 3.04145 1.73795 2.97878C1.99623 2.90495 2.26053 2.80443 2.53083 2.71199C2.80447 2.62699 3.04541 2.49483 3.28568 2.39246C3.40448 2.33786 3.51927 2.28511 3.62739 2.23548C3.73284 2.1815 3.82695 2.12628 3.91705 2.07727C4.27278 1.87872 4.51038 1.74595 4.51038 1.74595L3.27967 -3.78693e-07C3.27967 -3.78693e-07 3.08411 0.108581 2.79312 0.271139C2.72037 0.310848 2.64029 0.355519 2.55686 0.401433C2.47076 0.440521 2.37933 0.481469 2.28456 0.524281C2.09434 0.603698 1.90013 0.715378 1.68856 0.776802C0.868305 1.11309 -5.70299e-07 1.19375 -5.70299e-07 1.19375Z" transform="translate(32.6392 25.6345)" fill="black"/>
</svg>
