<svg width="121" height="120" viewBox="0 0 121 120" fill="none" xmlns="http://www.w3.org/2000/svg">
<circle cx="60" cy="60" r="55" stroke="#BDBDBD" stroke-width="10"/>
<mask id="path-2-inside-1" fill="white">
<path d="M120 60C120 93.1371 93.137 120 59.9999 120C26.8629 120 -6.11356e-05 93.1371 -6.11356e-05 60C66.2531 60 59.9999 69.6 59.9999 0C93.137 0 120 26.8629 120 60Z"/>
</mask>
<path d="M120 60C120 93.1371 93.137 120 59.9999 120C26.8629 120 -6.11356e-05 93.1371 -6.11356e-05 60C66.2531 60 59.9999 69.6 59.9999 0C93.137 0 120 26.8629 120 60Z" transform="translate(0.317871)" fill="white" stroke="#04AA48" stroke-width="20" mask="url(#path-2-inside-1)"/>
<circle cx="50" cy="50" r="50" transform="translate(9.96826 10)" fill="white"/>
<path d="M19.656 9.972V11.898C19.656 12.474 19.596 12.942 19.476 13.302C19.356 13.65 19.236 13.944 19.116 14.184L9.252 34.488C9.048 34.908 8.76 35.268 8.388 35.568C8.016 35.856 7.518 36 6.894 36H3.672L13.734 16.11C13.962 15.702 14.184 15.33 14.4 14.994C14.628 14.646 14.88 14.316 15.156 14.004H2.7C2.424 14.004 2.184 13.902 1.98 13.698C1.776 13.494 1.674 13.254 1.674 12.978V9.972H19.656ZM28.1908 19.422C28.7668 19.302 29.3188 19.218 29.8468 19.17C30.3748 19.11 30.8848 19.08 31.3768 19.08C32.7448 19.08 33.9508 19.284 34.9948 19.692C36.0388 20.1 36.9148 20.664 37.6228 21.384C38.3308 22.104 38.8648 22.95 39.2248 23.922C39.5848 24.882 39.7648 25.92 39.7648 27.036C39.7648 28.416 39.5188 29.676 39.0268 30.816C38.5468 31.956 37.8748 32.934 37.0108 33.75C36.1468 34.554 35.1208 35.178 33.9328 35.622C32.7568 36.066 31.4728 36.288 30.0808 36.288C29.2648 36.288 28.4908 36.204 27.7588 36.036C27.0268 35.868 26.3368 35.646 25.6888 35.37C25.0528 35.082 24.4588 34.758 23.9068 34.398C23.3668 34.026 22.8808 33.636 22.4488 33.228L23.8168 31.338C24.1048 30.93 24.4828 30.726 24.9508 30.726C25.2508 30.726 25.5568 30.822 25.8688 31.014C26.1808 31.206 26.5348 31.416 26.9308 31.644C27.3388 31.872 27.8128 32.082 28.3528 32.274C28.9048 32.466 29.5648 32.562 30.3328 32.562C31.1488 32.562 31.8688 32.43 32.4928 32.166C33.1168 31.902 33.6328 31.536 34.0408 31.068C34.4608 30.588 34.7728 30.024 34.9768 29.376C35.1928 28.716 35.3008 28.002 35.3008 27.234C35.3008 25.818 34.8868 24.714 34.0588 23.922C33.2428 23.118 32.0308 22.716 30.4228 22.716C29.1868 22.716 27.9208 22.944 26.6248 23.4L23.8528 22.608L26.0128 9.972H38.8648V11.862C38.8648 12.498 38.6668 13.014 38.2708 13.41C37.8748 13.806 37.2028 14.004 36.2548 14.004H29.1088L28.1908 19.422ZM58.7756 16.272C58.7756 17.256 58.6076 18.144 58.2716 18.936C57.9476 19.728 57.5096 20.406 56.9576 20.97C56.4056 21.522 55.7636 21.948 55.0316 22.248C54.2996 22.548 53.5376 22.698 52.7456 22.698C51.8816 22.698 51.0836 22.548 50.3516 22.248C49.6196 21.948 48.9836 21.522 48.4436 20.97C47.9156 20.406 47.5016 19.728 47.2016 18.936C46.9016 18.144 46.7516 17.256 46.7516 16.272C46.7516 15.264 46.9016 14.352 47.2016 13.536C47.5016 12.72 47.9156 12.03 48.4436 11.466C48.9836 10.902 49.6196 10.47 50.3516 10.17C51.0836 9.858 51.8816 9.702 52.7456 9.702C53.6096 9.702 54.4076 9.858 55.1396 10.17C55.8836 10.47 56.5256 10.902 57.0656 11.466C57.6056 12.03 58.0256 12.72 58.3256 13.536C58.6256 14.352 58.7756 15.264 58.7756 16.272ZM55.3556 16.272C55.3556 15.576 55.2836 14.994 55.1396 14.526C55.0076 14.058 54.8216 13.68 54.5816 13.392C54.3536 13.104 54.0776 12.9 53.7536 12.78C53.4416 12.648 53.1056 12.582 52.7456 12.582C52.3856 12.582 52.0496 12.648 51.7376 12.78C51.4256 12.9 51.1556 13.104 50.9276 13.392C50.7116 13.68 50.5376 14.058 50.4056 14.526C50.2736 14.994 50.2076 15.576 50.2076 16.272C50.2076 16.944 50.2736 17.508 50.4056 17.964C50.5376 18.408 50.7116 18.768 50.9276 19.044C51.1556 19.32 51.4256 19.518 51.7376 19.638C52.0496 19.758 52.3856 19.818 52.7456 19.818C53.1056 19.818 53.4416 19.758 53.7536 19.638C54.0776 19.518 54.3536 19.32 54.5816 19.044C54.8216 18.768 55.0076 18.408 55.1396 17.964C55.2836 17.508 55.3556 16.944 55.3556 16.272ZM67.4336 10.674C67.5896 10.494 67.7696 10.332 67.9736 10.188C68.1896 10.044 68.4896 9.972 68.8736 9.972H72.1136L52.7816 35.334C52.6256 35.526 52.4396 35.688 52.2236 35.82C52.0076 35.94 51.7436 36 51.4316 36H48.1196L67.4336 10.674ZM73.4816 29.88C73.4816 30.864 73.3136 31.752 72.9776 32.544C72.6536 33.336 72.2156 34.014 71.6636 34.578C71.1116 35.13 70.4696 35.562 69.7376 35.874C69.0056 36.174 68.2436 36.324 67.4516 36.324C66.5876 36.324 65.7896 36.174 65.0576 35.874C64.3256 35.562 63.6896 35.13 63.1496 34.578C62.6216 34.014 62.2076 33.336 61.9076 32.544C61.6076 31.752 61.4576 30.864 61.4576 29.88C61.4576 28.872 61.6076 27.96 61.9076 27.144C62.2076 26.328 62.6216 25.638 63.1496 25.074C63.6896 24.51 64.3256 24.078 65.0576 23.778C65.7896 23.466 66.5876 23.31 67.4516 23.31C68.3156 23.31 69.1136 23.466 69.8456 23.778C70.5896 24.078 71.2256 24.51 71.7536 25.074C72.2936 25.638 72.7136 26.328 73.0136 27.144C73.3256 27.96 73.4816 28.872 73.4816 29.88ZM70.0436 29.88C70.0436 29.184 69.9776 28.602 69.8456 28.134C69.7136 27.666 69.5276 27.288 69.2876 27C69.0596 26.712 68.7836 26.508 68.4596 26.388C68.1476 26.256 67.8116 26.19 67.4516 26.19C67.0916 26.19 66.7556 26.256 66.4436 26.388C66.1316 26.508 65.8616 26.712 65.6336 27C65.4056 27.288 65.2256 27.666 65.0936 28.134C64.9736 28.602 64.9136 29.184 64.9136 29.88C64.9136 30.552 64.9736 31.116 65.0936 31.572C65.2256 32.028 65.4056 32.394 65.6336 32.67C65.8616 32.946 66.1316 33.144 66.4436 33.264C66.7556 33.384 67.0916 33.444 67.4516 33.444C67.8116 33.444 68.1476 33.384 68.4596 33.264C68.7836 33.144 69.0596 32.946 69.2876 32.67C69.5276 32.394 69.7136 32.028 69.8456 31.572C69.9776 31.116 70.0436 30.552 70.0436 29.88Z" transform="translate(22 35)" fill="black"/>
</svg>
