<svg width="35" height="35" viewBox="0 0 35 35" fill="none" xmlns="http://www.w3.org/2000/svg">
<path d="M14.264 15.0487H10.0912C9.87834 15.0487 9.70803 14.9635 9.58029 14.8356C9.28224 14.5371 9.28224 14.0682 9.58029 13.8124L10.6022 12.7893L2.25669 4.39099L1.23479 5.41413C0.936739 5.71255 0.46837 5.71255 0.212896 5.41413C0.0851588 5.28624 6.49705e-07 5.07308 6.49705e-07 4.90256V0.724727C6.49705e-07 0.511572 0.0851588 0.341048 0.212896 0.213155C0.340633 0.0852622 0.553527 3.25248e-07 0.723844 3.25248e-07H4.89659C5.10949 3.25248e-07 5.2798 0.0852622 5.40754 0.213155C5.7056 0.511572 5.7056 0.980511 5.40754 1.2363L4.38564 2.25944L12.7311 10.6151L13.753 9.59196C14.0511 9.29354 14.5195 9.29354 14.7749 9.59196C14.9027 9.71985 14.9878 9.93301 14.9878 10.1035V14.2814C14.9878 14.4945 14.9027 14.665 14.7749 14.7929C14.6472 14.9635 14.4769 15.0487 14.264 15.0487Z" transform="translate(10.2188 9.89038)" fill="black"/>
<path d="M5.57786 11.1693C4.08759 11.1693 2.68248 10.5725 1.618 9.54933C0.553528 8.48356 -1.62426e-07 7.07674 -1.62426e-07 5.58465C-1.62426e-07 4.09257 0.596107 2.68575 1.618 1.61998C2.68248 0.554202 4.08759 0 5.57786 0C7.06813 0 8.47323 0.596833 9.53771 1.61998C10.6022 2.68575 11.1557 4.09257 11.1557 5.58465C11.1557 7.07674 10.5596 8.48356 9.53771 9.54933C8.47323 10.5725 7.06813 11.1693 5.57786 11.1693ZM5.57786 3.15469C4.93917 3.15469 4.34307 3.41047 3.8747 3.87942C3.40633 4.34836 3.15085 4.94519 3.15085 5.58465C3.15085 6.22412 3.40633 6.82095 3.8747 7.28989C4.34307 7.75883 4.93917 8.01462 5.57786 8.01462C6.21654 8.01462 6.81265 7.75883 7.28102 7.28989C7.74939 6.82095 8.00487 6.22412 8.00487 5.58465C8.00487 4.94519 7.74939 4.34836 7.28102 3.87942C6.81265 3.41047 6.21654 3.15469 5.57786 3.15469Z" fill="black"/>
<path d="M5.57786 11.1693C4.08759 11.1693 2.68248 10.5725 1.618 9.54933C0.553527 8.48356 6.49705e-07 7.07674 6.49705e-07 5.58465C6.49705e-07 4.09257 0.596106 2.68575 1.618 1.61997C2.68248 0.554201 4.08759 6.50496e-07 5.57786 6.50496e-07C7.06813 6.50496e-07 8.47324 0.596832 9.53771 1.61997C10.6022 2.68575 11.1557 4.09257 11.1557 5.58465C11.1557 7.07674 10.5596 8.48356 9.53771 9.54933C8.47324 10.5725 7.06813 11.1693 5.57786 11.1693ZM5.57786 3.15469C4.93917 3.15469 4.34307 3.41047 3.8747 3.87942C3.40633 4.34836 3.15085 4.94519 3.15085 5.58465C3.15085 6.22412 3.40633 6.82095 3.8747 7.28989C4.34307 7.75883 4.93917 8.01461 5.57786 8.01461C6.21654 8.01461 6.81265 7.75883 7.28102 7.28989C7.74939 6.82095 8.00486 6.22412 8.00486 5.58465C8.00486 4.94519 7.74939 4.34836 7.28102 3.87942C6.81265 3.41047 6.21654 3.15469 5.57786 3.15469Z" transform="translate(23.8442 23.8307)" fill="black"/>
</svg>
