<svg width="30" height="30" viewBox="0 0 30 30" fill="none" xmlns="http://www.w3.org/2000/svg">
<path d="M5.02529 0.0427272C4.96832 -0.0142425 4.86771 -0.0142425 4.81104 0.0427272L0.0443773 4.80909C0.00104393 4.85243 -0.0119869 4.91758 0.0116495 4.97424C0.0349828 5.03091 0.0904379 5.06788 0.15165 5.06788H3.04832V14.2345C3.04832 14.3185 3.1162 14.3861 3.19983 14.3861H6.6362C6.72013 14.3861 6.78771 14.3185 6.78771 14.2345V5.06788H9.68468C9.74589 5.06788 9.80135 5.03091 9.82468 4.97424C9.84832 4.91758 9.83529 4.85243 9.79195 4.80909L5.02529 0.0427272Z" transform="translate(10.082 7.80786)" fill="black"/>
<path d="M15 0C6.72909 0 0 6.72909 0 15C0 23.2709 6.72909 30 15 30C23.2712 30 30 23.2709 30 15C30 6.72909 23.2712 0 15 0ZM15 26.9697C8.4 26.9697 3.0303 21.6 3.0303 15C3.0303 8.4 8.4 3.0303 15 3.0303C21.6 3.0303 26.9697 8.4 26.9697 15C26.9697 21.6 21.6 26.9697 15 26.9697Z" fill="black"/>
</svg>
